<svg width="400"
     height="360"
     viewBox="0 0 20 18"
     fill="none"
     xmlns="http://www.w3.org/2000/svg">
    <g clip-path="url(#clip0_16_6)">
        <path d="M18 0H2C1.46957 0 0.960859 0.210714 0.585786 0.585786C0.210714 0.960859 0 1.46957 0 2L0 16C0 16.5304 0.210714 17.0391 0.585786 17.4142C0.960859 17.7893 1.46957 18 2 18H18C18.5304 18 19.0391 17.7893 19.4142 17.4142C19.7893 17.0391 20 16.5304 20 16V2C20 1.46957 19.7893 0.960859 19.4142 0.585786C19.0391 0.210714 18.5304 0 18 0ZM12.5 4C12.697 4 12.892 4.0388 13.074 4.11418C13.256 4.18956 13.4214 4.30005 13.5607 4.43934C13.6999 4.57863 13.8104 4.74399 13.8858 4.92597C13.9612 5.10796 14 5.30302 14 5.5C14 5.69698 13.9612 5.89204 13.8858 6.07403C13.8104 6.25601 13.6999 6.42137 13.5607 6.56066C13.4214 6.69995 13.256 6.81044 13.074 6.88582C12.892 6.9612 12.697 7 12.5 7C12.1022 7 11.7206 6.84196 11.4393 6.56066C11.158 6.27936 11 5.89782 11 5.5C11 5.10218 11.158 4.72064 11.4393 4.43934C11.7206 4.15804 12.1022 4 12.5 4ZM16.876 14.481C16.7898 14.638 16.6631 14.769 16.509 14.8603C16.3549 14.9516 16.1791 14.9999 16 15H4C3.82952 15.0001 3.66186 14.9566 3.51293 14.8736C3.364 14.7907 3.23874 14.671 3.14907 14.526C3.05939 14.381 3.00827 14.2155 3.00056 14.0452C2.99284 13.8749 3.0288 13.7055 3.105 13.553L6.605 6.553C6.68557 6.39154 6.80833 6.25488 6.96026 6.15752C7.1122 6.06017 7.28764 6.00574 7.468 6C7.64992 5.98988 7.83098 6.03147 7.99025 6.11995C8.14952 6.20843 8.28049 6.3402 8.368 6.5L11.143 11.257L12.689 9.37C12.7894 9.24769 12.9174 9.15096 13.0625 9.08777C13.2076 9.02457 13.3656 8.9967 13.5236 9.00647C13.6815 9.01623 13.8349 9.06334 13.9711 9.14392C14.1073 9.2245 14.2224 9.33626 14.307 9.47L16.848 13.47C16.9421 13.6208 16.9943 13.794 16.9992 13.9717C17.0042 14.1494 16.9616 14.3252 16.876 14.481Z"
              fill="#E8EAED" />
    </g>
    <defs>
        <clipPath id="clip0_16_6">
            <rect width="20"
                  height="18"
                  fill="white" />
        </clipPath>
    </defs>
</svg>