<svg width="9" height="14" viewBox="0 0 9 14" fill="none" xmlns="http://www.w3.org/2000/svg">
<path d="M2.18849 3.04426C1.34845 3.04426 0.667672 2.3629 0.667672 1.52286C0.667672 0.682826 1.34903 0.00146471 2.18907 0.00146471C3.0291 0.00146471 3.71047 0.682826 3.71047 1.52286C3.71047 2.3629 3.02852 3.04426 2.18849 3.04426ZM2.18849 8.52315C1.34845 8.52315 0.667089 7.84179 0.667089 7.00117C0.667089 6.16055 1.34845 5.47919 2.18907 5.47919C3.02969 5.47919 3.71105 6.16055 3.71105 7.00117C3.71105 7.84179 3.0291 8.52315 2.18849 8.52315ZM2.18849 14.0015C1.34845 14.0015 0.667089 13.3201 0.667089 12.4795C0.667089 11.6389 1.34845 10.9575 2.18907 10.9575C3.02969 10.9575 3.71105 11.6389 3.71105 12.4795C3.71105 13.3195 3.02969 14.0015 2.18965 14.0015C2.18907 14.0015 2.18907 14.0015 2.18849 14.0015Z" fill="black"/>
<path d="M6.85535 3.04426C6.01531 3.04426 5.33453 2.3629 5.33453 1.52286C5.33453 0.682826 6.0159 0.00146471 6.85593 0.00146471C7.69597 0.00146471 8.37733 0.682826 8.37733 1.52286C8.37733 2.3629 7.69538 3.04426 6.85535 3.04426ZM6.85535 8.52315C6.01531 8.52315 5.33395 7.84179 5.33395 7.00117C5.33395 6.16055 6.01531 5.47919 6.85593 5.47919C7.69655 5.47919 8.37791 6.16055 8.37791 7.00117C8.37791 7.84179 7.69597 8.52315 6.85535 8.52315ZM6.85535 14.0015C6.01531 14.0015 5.33395 13.3201 5.33395 12.4795C5.33395 11.6389 6.01531 10.9575 6.85593 10.9575C7.69655 10.9575 8.37791 11.6389 8.37791 12.4795C8.37791 13.3195 7.69655 14.0015 6.85652 14.0015C6.85593 14.0015 6.85593 14.0015 6.85535 14.0015Z" fill="black"/>
</svg>
